<svg width="64" height="64" viewBox="0 0 64 64" fill="none" xmlns="http://www.w3.org/2000/svg">
<path fill-rule="evenodd" clip-rule="evenodd" d="M32 58C38.8956 58 45.5088 55.2607 50.3848 50.3848C55.2607 45.5088 58 38.8956 58 32C58 25.1044 55.2607 18.4912 50.3848 13.6152C45.5088 8.73928 38.8956 6 32 6C25.1044 6 18.4912 8.73928 13.6152 13.6152C8.73928 18.4912 6 25.1044 6 32C6 38.8956 8.73928 45.5088 13.6152 50.3848C18.4912 55.2607 25.1044 58 32 58ZM32 64C40.4869 64 48.6263 60.6286 54.6274 54.6274C60.6286 48.6263 64 40.4869 64 32C64 23.5131 60.6286 15.3737 54.6274 9.37258C48.6263 3.37142 40.4869 0 32 0C23.5131 0 15.3737 3.37142 9.37258 9.37258C3.37142 15.3737 0 23.5131 0 32C0 40.4869 3.37142 48.6263 9.37258 54.6274C15.3737 60.6286 23.5131 64 32 64ZM36 44C36 45.0609 35.5786 46.0783 34.8284 46.8284C34.0783 47.5786 33.0609 48 32 48C30.9391 48 29.9217 47.5786 29.1716 46.8284C28.4214 46.0783 28 45.0609 28 44C28 42.9391 28.4214 41.9217 29.1716 41.1716C29.9217 40.4214 30.9391 40 32 40C33.0609 40 34.0783 40.4214 34.8284 41.1716C35.5786 41.9217 36 42.9391 36 44ZM35 19C35 18.2044 34.6839 17.4413 34.1213 16.8787C33.5587 16.3161 32.7956 16 32 16C31.2044 16 30.4413 16.3161 29.8787 16.8787C29.3161 17.4413 29 18.2044 29 19V33C29 33.7956 29.3161 34.5587 29.8787 35.1213C30.4413 35.6839 31.2044 36 32 36C32.7956 36 33.5587 35.6839 34.1213 35.1213C34.6839 34.5587 35 33.7956 35 33V19Z" fill="#F87171"/>
</svg>
