<svg width="33" height="32" viewBox="0 0 33 32" fill="none" xmlns="http://www.w3.org/2000/svg">
<g clip-path="url(#clip0_104748_4349)">
<path d="M32.6 16C32.6 7.16344 25.4365 0 16.6 0C7.76341 0 0.599976 7.16344 0.599976 16C0.599976 23.9859 6.45091 30.6053 14.1 31.8056V20.625H10.0375V16H14.1V12.475C14.1 8.465 16.4887 6.25 20.1434 6.25C21.8934 6.25 23.725 6.5625 23.725 6.5625V10.5H21.7075C19.72 10.5 19.1 11.7334 19.1 13V16H23.5375L22.8281 20.625H19.1V31.8056C26.749 30.6053 32.6 23.9859 32.6 16Z" fill="white"/>
</g>
<defs>
<clipPath id="clip0_104748_4349">
<rect width="32" height="32" fill="white" transform="translate(0.599976)"/>
</clipPath>
</defs>
</svg>
