<svg width="33" height="32" viewBox="0 0 33 32" fill="none" xmlns="http://www.w3.org/2000/svg">
<g clip-path="url(#clip0_104748_4350)">
<path d="M16.8 2.88125C21.075 2.88125 21.5813 2.9 23.2625 2.975C24.825 3.04375 25.6688 3.30625 26.2313 3.525C26.975 3.8125 27.5125 4.1625 28.0688 4.71875C28.6313 5.28125 28.975 5.8125 29.2625 6.55625C29.4813 7.11875 29.7438 7.96875 29.8125 9.525C29.8875 11.2125 29.9063 11.7188 29.9063 15.9875C29.9063 20.2625 29.8875 20.7688 29.8125 22.45C29.7438 24.0125 29.4813 24.8563 29.2625 25.4188C28.975 26.1625 28.625 26.7 28.0688 27.2563C27.5063 27.8188 26.975 28.1625 26.2313 28.45C25.6688 28.6688 24.8188 28.9313 23.2625 29C21.575 29.075 21.0688 29.0938 16.8 29.0938C12.525 29.0938 12.0188 29.075 10.3375 29C8.77505 28.9313 7.9313 28.6688 7.3688 28.45C6.62505 28.1625 6.08755 27.8125 5.5313 27.2563C4.9688 26.6938 4.62505 26.1625 4.33755 25.4188C4.1188 24.8563 3.8563 24.0063 3.78755 22.45C3.71255 20.7625 3.6938 20.2563 3.6938 15.9875C3.6938 11.7125 3.71255 11.2062 3.78755 9.525C3.8563 7.9625 4.1188 7.11875 4.33755 6.55625C4.62505 5.8125 4.97505 5.275 5.5313 4.71875C6.0938 4.15625 6.62505 3.8125 7.3688 3.525C7.9313 3.30625 8.7813 3.04375 10.3375 2.975C12.0188 2.9 12.525 2.88125 16.8 2.88125ZM16.8 0C12.4563 0 11.9125 0.01875 10.2063 0.09375C8.5063 0.16875 7.33755 0.44375 6.32505 0.8375C5.2688 1.25 4.37505 1.79375 3.48755 2.6875C2.5938 3.575 2.05005 4.46875 1.63755 5.51875C1.2438 6.5375 0.968799 7.7 0.893799 9.4C0.818799 11.1125 0.800049 11.6563 0.800049 16C0.800049 20.3438 0.818799 20.8875 0.893799 22.5938C0.968799 24.2938 1.2438 25.4625 1.63755 26.475C2.05005 27.5313 2.5938 28.425 3.48755 29.3125C4.37505 30.2 5.2688 30.75 6.3188 31.1563C7.33755 31.55 8.50005 31.825 10.2 31.9C11.9063 31.975 12.45 31.9937 16.7938 31.9937C21.1375 31.9937 21.6813 31.975 23.3875 31.9C25.0875 31.825 26.2563 31.55 27.2688 31.1563C28.3188 30.75 29.2125 30.2 30.1 29.3125C30.9875 28.425 31.5375 27.5313 31.9438 26.4813C32.3375 25.4625 32.6125 24.3 32.6875 22.6C32.7625 20.8938 32.7813 20.35 32.7813 16.0063C32.7813 11.6625 32.7625 11.1188 32.6875 9.4125C32.6125 7.7125 32.3375 6.54375 31.9438 5.53125C31.55 4.46875 31.0063 3.575 30.1125 2.6875C29.225 1.8 28.3313 1.25 27.2813 0.84375C26.2625 0.45 25.1 0.175 23.4 0.1C21.6875 0.01875 21.1438 0 16.8 0Z" fill="white"/>
<path d="M16.8 7.78125C12.2625 7.78125 8.5813 11.4625 8.5813 16C8.5813 20.5375 12.2625 24.2188 16.8 24.2188C21.3375 24.2188 25.0188 20.5375 25.0188 16C25.0188 11.4625 21.3375 7.78125 16.8 7.78125ZM16.8 21.3312C13.8563 21.3312 11.4688 18.9438 11.4688 16C11.4688 13.0563 13.8563 10.6687 16.8 10.6687C19.7438 10.6687 22.1313 13.0563 22.1313 16C22.1313 18.9438 19.7438 21.3312 16.8 21.3312Z" fill="white"/>
<path d="M27.2625 7.45635C27.2625 8.51885 26.4 9.3751 25.3438 9.3751C24.2813 9.3751 23.425 8.5126 23.425 7.45635C23.425 6.39385 24.2875 5.5376 25.3438 5.5376C26.4 5.5376 27.2625 6.4001 27.2625 7.45635Z" fill="white"/>
</g>
<defs>
<clipPath id="clip0_104748_4350">
<rect width="32" height="32" fill="white" transform="translate(0.800049)"/>
</clipPath>
</defs>
</svg>
