<svg width="20" height="21" viewBox="0 0 20 21" fill="none" xmlns="http://www.w3.org/2000/svg">
<g id="Icons social media" clip-path="url(#clip0_104199_377)">
<path id="Vector" d="M14.2272 0.5H10.8566V14.1232C10.8566 15.7464 9.56024 17.0797 7.94697 17.0797C6.33369 17.0797 5.03732 15.7464 5.03732 14.1232C5.03732 12.529 6.30489 11.2246 7.86056 11.1667V7.74639C4.43235 7.80433 1.66675 10.6159 1.66675 14.1232C1.66675 17.6594 4.48996 20.5 7.97579 20.5C11.4616 20.5 14.2848 17.6304 14.2848 14.1232V7.13767C15.5524 8.06522 17.108 8.61594 18.7501 8.64495V5.22464C16.215 5.13768 14.2272 3.05072 14.2272 0.5Z" fill="white"/>
</g>
<defs>
<clipPath id="clip0_104199_377">
<rect width="20" height="20" fill="white" transform="translate(0 0.5)"/>
</clipPath>
</defs>
</svg>
