<svg width="50" height="50" viewBox="0 0 50 50" fill="none" xmlns="http://www.w3.org/2000/svg">
<rect y="0.0767822" width="50.0001" height="49.9075" rx="24.9537" fill="#FCEA10"/>
<path d="M28.5569 26.9828L28.1019 27.4358C28.1019 27.4358 27.0189 28.5118 24.0639 25.5738C21.1089 22.6358 22.1919 21.5598 22.1919 21.5598L22.4779 21.2738C23.1849 20.5718 23.2519 19.4438 22.6349 18.6198L21.3749 16.9368C20.6109 15.9168 19.1359 15.7818 18.2609 16.6518L16.6909 18.2118C16.2579 18.6438 15.9679 19.2018 16.0029 19.8218C16.0929 21.4088 16.8109 24.8218 20.8149 28.8038C25.0619 33.0258 29.0469 33.1938 30.6759 33.0418C31.1919 32.9938 31.6399 32.7318 32.0009 32.3718L33.4209 30.9598C34.3809 30.0068 34.1109 28.3718 32.8829 27.7048L30.9729 26.6658C30.1669 26.2278 29.1869 26.3568 28.5569 26.9828Z" fill="#202020"/>
</svg>
