<svg width="110" height="107" viewBox="0 0 110 107" fill="none" xmlns="http://www.w3.org/2000/svg">
<path d="M10.8732 71.3913C10.9772 71.9535 11.0862 72.5157 11.2101 73.0728C14.202 72.434 17.2237 71.8871 20.2405 71.422C19.5965 68.6569 19.2597 65.7691 19.2597 62.7996C19.2597 42.432 35.2599 25.9182 55.005 25.9182C74.7501 25.9182 90.7503 42.432 90.7503 62.7996C90.7503 65.7691 90.4085 68.6569 89.7695 71.422C92.7862 71.8922 95.803 72.434 98.7999 73.0728C98.9237 72.5055 99.0377 71.9381 99.1417 71.3606L104.784 67.5478C104.923 65.9838 104.992 64.3942 104.992 62.7944C104.992 61.1947 104.923 59.5949 104.784 58.0258L99.1417 54.2027C98.7206 51.8823 98.1312 49.6232 97.3881 47.4408L100.43 41.2258C99.1318 38.3227 97.5813 35.5678 95.8079 32.9867L89.0512 32.588C87.58 30.8247 85.9799 29.1739 84.271 27.6559L83.8945 20.6947C81.3929 18.8649 78.7229 17.2651 75.9092 15.9312L69.8708 19.0693C67.7556 18.3026 65.5661 17.6995 63.3172 17.2651L59.6217 11.4436C58.1059 11.3005 56.5654 11.229 55.0149 11.229C53.4644 11.229 51.9139 11.3005 50.3932 11.4487L46.6879 17.2753C44.4389 17.7097 42.2494 18.318 40.1342 19.0846L34.1106 15.9465C31.297 17.2856 28.627 18.8853 26.1254 20.715L25.739 27.6866C24.03 29.2046 22.43 30.8554 20.9588 32.6187L14.2169 33.0072C12.4435 35.5883 10.893 38.3432 9.60013 41.2463L12.6367 47.4766C11.8937 49.659 11.3091 51.9181 10.8881 54.2385L5.2459 58.0462C5.1072 59.6102 5.03784 61.1998 5.03784 62.7996C5.03784 64.3993 5.1072 65.9991 5.25086 67.5682L10.893 71.3913H10.8732Z" fill="#FBE910"/>
<path d="M88.323 75.061C66.1853 72.4084 43.8197 72.4084 21.682 75.061L0 77.6575H110L88.318 75.061H88.323Z" fill="#575756"/>
<path d="M25.4121 95.5359C33.4072 102.696 43.7306 107 55.0001 107C66.2695 107 76.5929 102.696 84.593 95.5359C77.3805 99.8394 64.1593 102.329 55.0001 102.329C45.8408 102.329 32.6196 99.8394 25.4121 95.5359Z" fill="#FBE910"/>
<path d="M40.1093 14.8374L42.6753 13.4421L45.2413 14.8374L44.7509 11.8883L46.8264 9.79798L43.9583 9.36861L42.6753 6.6853L41.3923 9.36861L38.5242 9.79798L40.5997 11.8883L40.1093 14.8374Z" fill="white"/>
<path d="M64.8281 14.8374L67.3941 13.4421L69.96 14.8374L69.4696 11.8883L71.5452 9.79798L68.677 9.36861L67.3941 6.6853L66.1111 9.36861L63.2429 9.79798L65.3185 11.8883L64.8281 14.8374Z" fill="white"/>
<path d="M52.4687 8.147L55.0347 6.75169L57.6007 8.147L57.1102 5.19791L59.1858 3.10744L56.3177 2.67819L55.0347 0L53.7517 2.67819L50.8835 3.10744L52.9591 5.19791L52.4687 8.147Z" fill="white"/>
<path d="M17.0405 86.0292H15.1978V87.9765H17.0405V91.2783H19.3637V83.489H17.0405V86.0292Z" fill="white"/>
<path d="M14.7222 83.489H12.3989V91.2732H14.7222V83.489Z" fill="white"/>
<path d="M27.3639 87.0259C27.3639 85.9014 27.131 85.0837 26.6654 84.5726C26.1998 84.0615 25.6846 83.7191 25.1199 83.5453C24.8425 83.4533 24.5651 83.3971 24.2926 83.3715C24.0202 83.3459 23.7725 83.3306 23.5595 83.3306H23.401C23.1038 83.3306 22.8016 83.3459 22.4796 83.3715C22.1576 83.3971 21.791 83.4379 21.3749 83.4942V85.5079C21.5879 85.4466 21.7811 85.4005 21.9545 85.3648C22.1279 85.3341 22.2963 85.3086 22.4598 85.2881C22.5489 85.2779 22.648 85.2728 22.7471 85.2677C22.8511 85.2677 22.9551 85.2626 23.0592 85.2626C23.7725 85.2626 24.2579 85.416 24.5205 85.7175C24.783 86.0191 24.9415 86.3513 25.001 86.709C25.0258 86.8521 25.0406 86.9953 25.0456 87.1333C25.0505 87.2713 25.0505 87.3991 25.0505 87.5166V89.3258H23.6486C23.4208 89.3258 23.2375 89.2697 23.1037 89.1521C22.97 89.0346 22.9007 88.8761 22.9007 88.6818C22.9007 88.4467 22.9651 88.2832 23.0988 88.1912C23.2276 88.0941 23.3713 88.0328 23.5298 88.0073C23.6041 87.997 23.6685 87.9919 23.7329 87.9868C23.7923 87.9817 23.8517 87.9817 23.9112 87.9817H24.5849V87.5779C24.5849 87.3888 24.575 87.1895 24.5552 86.985C24.5354 86.7806 24.466 86.5659 24.3521 86.3513H23.396C22.4152 86.3513 21.7068 86.5761 21.2808 87.0259C20.8548 87.4756 20.6071 87.9664 20.5328 88.4979C20.5229 88.5695 20.518 88.6359 20.513 88.7023C20.513 88.7636 20.5081 88.8301 20.5081 88.8915C20.5081 89.5866 20.6666 90.0977 20.9886 90.4248C21.3056 90.7519 21.6623 90.9819 22.0437 91.1046C22.3062 91.1864 22.5589 91.2374 22.8065 91.2527C23.0542 91.2732 23.2425 91.2783 23.3861 91.2783H27.3787V87.0259H27.3639Z" fill="white"/>
<path d="M32.3621 89.0295V91.2732H42.3238V89.0295H41.3776V81.2454H37.6327C36.2457 81.2454 35.2352 81.5571 34.5961 82.1857C33.9571 82.8144 33.5311 83.4993 33.3181 84.2455C33.2141 84.5982 33.1398 84.9406 33.1101 85.2779C33.0754 85.6153 33.0605 85.9168 33.0605 86.1928C33.0605 86.5915 33.0853 86.9595 33.1348 87.307C33.1844 87.6546 33.2389 87.9561 33.2933 88.2219C33.3082 88.2935 33.3231 88.36 33.3379 88.4162C33.3478 88.4724 33.3627 88.5286 33.3825 88.5848H35.9633C35.9485 88.5132 35.9287 88.4315 35.9138 88.3497C35.8989 88.2628 35.8791 88.1657 35.8643 88.0583C35.8296 87.8948 35.8048 87.721 35.7801 87.537C35.7553 87.353 35.7404 87.164 35.7305 86.9748V86.801C35.7305 86.6221 35.7305 86.4229 35.7355 86.2133C35.7355 86.0037 35.7553 85.7891 35.79 85.5693C35.8742 85.048 36.0822 84.5675 36.4191 84.1382C36.7559 83.7037 37.3702 83.4891 38.2618 83.4891H38.7919V89.0295H32.367H32.3621Z" fill="white"/>
<path d="M43.9484 84.3681C43.245 85.0734 42.8933 86.0753 42.8933 87.3837C42.8933 88.6921 43.245 89.6938 43.9484 90.3889C44.6518 91.0892 45.5484 91.4419 46.6382 91.4521V91.4367C47.728 91.4367 48.6246 91.0892 49.3281 90.3889C50.0315 89.6887 50.3832 88.687 50.3832 87.3837C50.3832 86.0804 50.0315 85.0734 49.3281 84.3681C48.6246 83.6628 47.728 83.3152 46.6382 83.3152C45.5484 83.3152 44.6518 83.6679 43.9484 84.3681ZM46.9107 85.2881C47.1831 85.3392 47.4308 85.5181 47.6537 85.8197C47.8766 86.1212 47.9906 86.6426 47.9906 87.3786C47.9906 88.1146 47.8766 88.6358 47.6537 88.9374C47.4308 89.2389 47.1831 89.4178 46.9107 89.4689C46.8611 89.4792 46.8116 89.4843 46.767 89.4894C46.7225 89.4894 46.6779 89.4945 46.6382 89.4945C46.5639 89.4945 46.4748 89.4843 46.3757 89.4689C46.2717 89.4536 46.1676 89.4127 46.0636 89.3463C45.8655 89.2492 45.6872 89.0499 45.5286 88.7534C45.3701 88.457 45.2909 87.997 45.2909 87.3735C45.2909 86.7499 45.3701 86.2899 45.5286 85.9935C45.6872 85.6971 45.8655 85.4977 46.0636 85.4005C46.1726 85.3392 46.2766 85.2983 46.3757 85.2779C46.4797 85.2574 46.5639 85.2523 46.6382 85.2523C46.6779 85.2523 46.7225 85.2523 46.767 85.2574C46.8116 85.2625 46.8611 85.2677 46.9107 85.2779" fill="white"/>
<path d="M55.3369 88.692C55.2379 88.738 55.1438 88.7688 55.0496 88.7892C54.9555 88.8097 54.8763 88.8147 54.8119 88.8147C54.7277 88.8147 54.6484 88.8097 54.5642 88.7944C54.48 88.779 54.3958 88.7585 54.3066 88.733V90.6803C54.4205 90.7008 54.5592 90.716 54.7177 90.7262C54.8763 90.7416 55.0447 90.7518 55.2131 90.762H55.3716C56.189 90.762 56.9073 90.4452 57.5265 89.8012C58.1457 89.1623 58.4528 88.2577 58.4528 87.0975C58.4528 86.1161 58.2645 85.375 57.8881 84.8792C57.5116 84.3834 57.0955 84.0307 56.6447 83.8263C56.2583 83.6576 55.9017 83.5555 55.5698 83.5299C55.2379 83.5044 55.015 83.489 54.901 83.489H51.5078V95.6585H53.831V85.4364H54.3611C54.4503 85.4364 54.5592 85.4364 54.688 85.4517C54.8168 85.4619 54.9456 85.4874 55.0744 85.5334C55.3221 85.6152 55.545 85.7736 55.7481 86.0138C55.9512 86.2541 56.0552 86.6477 56.0552 87.1997C56.0552 87.6596 55.9809 88.0021 55.8274 88.2321C55.6738 88.4621 55.5103 88.6154 55.332 88.6972" fill="white"/>
<path d="M60.3005 84.3681C59.5971 85.0734 59.2454 86.0753 59.2454 87.3837C59.2454 88.6921 59.5971 89.6938 60.3005 90.3889C61.0039 91.0892 61.9005 91.4419 62.9903 91.4521V91.4367C64.0801 91.4367 64.9767 91.0892 65.6801 90.3889C66.3835 89.6887 66.7352 88.687 66.7352 87.3837C66.7352 86.0804 66.3835 85.0734 65.6801 84.3681C64.9767 83.6628 64.0801 83.3152 62.9903 83.3152C61.9005 83.3152 61.0039 83.6679 60.3005 84.3681ZM63.2627 85.2881C63.5352 85.3392 63.7829 85.5181 64.0058 85.8197C64.2287 86.1212 64.3426 86.6426 64.3426 87.3786C64.3426 88.1146 64.2287 88.6358 64.0058 88.9374C63.7829 89.2389 63.5352 89.4178 63.2627 89.4689C63.2132 89.4792 63.1637 89.4843 63.1191 89.4894C63.0745 89.4894 63.0299 89.4945 62.9903 89.4945C62.916 89.4945 62.8268 89.4843 62.7278 89.4689C62.6237 89.4536 62.5197 89.4127 62.4157 89.3463C62.2175 89.2492 62.0392 89.0499 61.8807 88.7534C61.7222 88.457 61.6429 87.997 61.6429 87.3735C61.6429 86.7499 61.7222 86.2899 61.8807 85.9935C62.0392 85.6971 62.2175 85.4977 62.4157 85.4005C62.5247 85.3392 62.6287 85.2983 62.7278 85.2779C62.8318 85.2574 62.916 85.2523 62.9903 85.2523C63.0299 85.2523 63.0745 85.2523 63.1191 85.2574C63.1637 85.2625 63.2132 85.2677 63.2627 85.2779" fill="white"/>
<path d="M76.7562 85.2421C77.0039 84.9507 77.2268 84.6492 77.4249 84.3425C77.5141 84.1994 77.5983 84.0564 77.6726 83.9082C77.7469 83.765 77.8064 83.627 77.8559 83.489H75.2652C75.2057 83.6066 75.1512 83.719 75.0918 83.8263C75.0323 83.9336 74.9778 84.0308 74.9184 84.1228C74.6955 84.4652 74.4825 84.731 74.2794 84.915C74.0763 85.099 73.8881 85.2422 73.7246 85.3393V83.489H71.4013V85.3393C71.2379 85.2422 71.0546 85.099 70.8465 84.915C70.6434 84.731 70.4304 84.4652 70.2075 84.1228C70.1481 84.0308 70.0936 83.9336 70.0341 83.8263C69.9747 83.719 69.9202 83.6066 69.8608 83.489H67.27C67.3196 83.627 67.379 83.765 67.4533 83.9082C67.5276 84.0513 67.6069 84.1943 67.701 84.3425C67.8991 84.6492 68.122 84.9507 68.3697 85.2421C68.6174 85.5334 68.8799 85.7992 69.1474 86.0343C68.9592 86.3205 68.7858 86.617 68.6273 86.9134C68.4688 87.2098 68.3251 87.5114 68.2013 87.8181C67.9388 88.4467 67.7357 89.0652 67.5871 89.6683C67.4384 90.2714 67.3344 90.808 67.27 91.2783H69.5933C69.6279 91.0432 69.6676 90.7979 69.7171 90.5423C69.7666 90.2868 69.8261 90.0261 69.8905 89.7654C69.9945 89.3412 70.1283 88.9221 70.2818 88.503C70.4403 88.0839 70.6137 87.7057 70.8119 87.3735C70.9109 87.445 71.01 87.5165 71.1091 87.583C71.2081 87.6494 71.3072 87.7209 71.4063 87.7925V91.2783H73.7295V87.7925C73.8286 87.7209 73.9277 87.6494 74.0268 87.583C74.1258 87.5165 74.2249 87.445 74.324 87.3735C74.5221 87.7057 74.6955 88.0839 74.854 88.503C75.0076 88.9221 75.1413 89.3463 75.2453 89.7654C75.3097 90.0261 75.3692 90.2868 75.4187 90.5423C75.4683 90.7979 75.5079 91.0432 75.5426 91.2783H77.8658C77.8014 90.808 77.6924 90.2714 77.5488 89.6683C77.4002 89.0652 77.1971 88.4467 76.9345 87.8181C76.8107 87.5114 76.672 87.2098 76.5085 86.9134C76.35 86.617 76.1766 86.3256 75.9884 86.0343C76.2608 85.7992 76.5184 85.5334 76.7711 85.2421" fill="white"/>
<path d="M81.0659 83.489H78.7427V91.2732H81.0659V83.489Z" fill="white"/>
<path d="M83.3842 86.0292H81.5415V87.9765H83.3842V91.2783H85.7075V83.489H83.3842V86.0292Z" fill="white"/>
<path d="M87.5551 82.5385C87.788 82.8758 88.0505 83.0445 88.3477 83.0445C88.6598 83.0445 88.9273 82.8604 89.1502 82.4975C89.3731 82.1347 89.5267 81.7156 89.596 81.2454H87.0796C87.1638 81.7667 87.3174 82.196 87.5551 82.5385Z" fill="white"/>
<path d="M89.502 83.489H87.1787V91.2732H89.502V83.489Z" fill="white"/>
<path d="M94.9559 83.7446C94.8222 83.8417 94.6884 83.9542 94.5497 84.0666C94.3714 84.2199 94.1931 84.3886 94.0197 84.5675C93.8463 84.7464 93.6828 84.9303 93.5293 85.1194C93.4897 85.1654 93.45 85.2114 93.4104 85.2625C93.3757 85.3136 93.3361 85.3648 93.2915 85.4159V83.4839H90.9683V91.2731H93.2915V88.3547C93.668 87.7056 94.0346 87.1945 94.3912 86.8214C94.7479 86.4483 95.0599 86.1621 95.3324 85.9628V91.2783H97.6556V83.489H95.3324C95.2086 83.5606 95.0798 83.6474 94.951 83.7446" fill="white"/>
<path d="M94.3169 83.0445C94.629 83.0445 94.8965 82.8604 95.1293 82.4975C95.3571 82.1347 95.5107 81.7156 95.585 81.2454H93.0537C93.128 81.7156 93.2816 82.1295 93.5144 82.4975C93.7472 82.8604 94.0147 83.0445 94.3169 83.0445Z" fill="white"/>
<path d="M36.3298 60.6171C35.5471 60.1315 34.9378 59.4313 34.5069 58.5266C34.0759 57.6271 33.8629 56.5998 33.8629 55.4345C33.8629 54.2692 34.0759 53.2316 34.5069 52.3321C34.9378 51.4325 35.5521 50.7374 36.3298 50.2416C37.1125 49.7458 38.0091 49.5005 39.0097 49.5005C40.7187 49.5005 42.1701 50.3081 43.3788 51.9283L46.7027 48.5499C45.8061 47.2824 44.6816 46.3163 43.3243 45.6416C41.972 44.967 40.4463 44.6348 38.7521 44.6348C36.8153 44.6348 35.0716 45.0947 33.531 46.0147C31.9904 46.9296 30.7768 48.2176 29.9 49.8583C29.0183 51.4989 28.5774 53.3645 28.5774 55.4396C28.5774 57.5147 29.0183 59.3751 29.9 61.0106C30.7817 62.6564 31.9954 63.9342 33.531 64.8542C35.0716 65.7793 36.8153 66.2341 38.7521 66.2341C40.4463 66.2341 41.972 65.8968 43.3243 65.2273C44.5875 64.6037 45.6476 63.7298 46.4996 62.5951C42.8884 62.6309 39.8122 61.9409 38.336 61.3327C37.6029 61.2509 36.9341 61.0055 36.3298 60.6273" fill="white"/>
<path d="M69.1674 45.0027C68.3203 45.2378 67.5178 45.5751 66.7649 46.0249C65.2045 46.9551 63.9809 48.238 63.0893 49.8838C62.3462 51.2587 61.9153 52.7766 61.7964 54.4428C64.6299 52.6539 67.176 50.6044 69.4101 48.3402C68.9395 47.3078 68.8553 46.1169 69.1674 45.0078" fill="white"/>
<path d="M73.0857 46.8837C73.1649 46.9706 73.2739 47.0114 73.3878 47.037L75.3346 47.5685C75.6219 47.6503 75.7507 47.6043 75.9934 47.3437L77.2814 46.0148C75.8349 45.1561 74.2101 44.7064 72.4219 44.6501L72.9321 46.5668C72.9668 46.6843 73.0064 46.8122 73.0857 46.894" fill="white"/>
<path d="M75.2604 50.7885C75.7013 51.2127 76.0777 51.7187 76.375 52.3269C76.8158 53.2265 77.0338 54.2589 77.0338 55.4294C77.0338 56.5998 76.8109 57.6321 76.375 58.5317C75.9341 59.4312 75.3347 60.1315 74.5768 60.6222C73.8189 61.1179 72.9718 61.3632 72.0406 61.3632C71.1093 61.3632 70.2622 61.1179 69.5043 60.6222C68.7464 60.1264 68.147 59.4312 67.7061 58.5317C67.2653 57.6321 67.0473 56.5998 67.0473 55.4294C67.0473 55.2607 67.0622 55.1023 67.0721 54.9438C65.5711 55.9763 63.8671 57.0444 62.0293 58.041C62.2473 59.0837 62.599 60.065 63.0943 60.9799C63.986 62.6206 65.2095 63.9086 66.765 64.8388C68.3253 65.769 70.0839 66.2341 72.0356 66.2341C73.9873 66.2341 75.7459 65.769 77.3062 64.8388C78.8666 63.9086 80.0902 62.6257 80.9818 60.9799C81.8685 59.3393 82.3143 57.4891 82.3143 55.4345C82.3143 53.3798 81.8685 51.5296 80.9818 49.8889C80.2784 48.5907 79.362 47.5174 78.2375 46.6638C78.183 47.5378 77.8908 48.4068 77.3508 49.1683C76.796 49.9452 76.0629 50.4818 75.2505 50.7987" fill="white"/>
<path d="M57.7494 55.1943V43.4643H66.8145V38.0415H42.7449V43.4643H51.919V57.9337C53.0484 57.5402 55.5054 56.5027 57.7444 55.1994" fill="white"/>
<path d="M57.6997 66.7197V60.1316C59.1957 59.5029 60.6471 58.7924 62.0291 58.0411C63.862 57.0444 65.571 55.9763 67.0719 54.9439C69.3258 53.3901 71.119 51.918 72.1791 50.8805C73.1946 51.2229 74.2794 51.177 75.2603 50.7937C76.0677 50.4768 76.8058 49.9401 77.3606 49.1633C77.9005 48.4017 78.1928 47.5328 78.2473 46.6588C78.2572 46.5054 78.2621 46.3573 78.2572 46.2039C78.2572 46.2039 78.2572 46.2005 78.2572 46.1937C78.2473 45.8308 78.2027 45.4781 78.1185 45.1408L77.2863 46.0045L76.0033 47.3335C75.7606 47.5941 75.6268 47.6452 75.3445 47.5583L73.3977 47.0267C73.2838 47.0012 73.1797 46.9604 73.0955 46.8735C73.0163 46.7917 72.9717 46.6639 72.942 46.5463L72.4317 44.6297L72.4119 44.5633C72.3376 44.2669 72.3871 44.1288 72.6249 43.8733L74.75 41.6704C74.4132 41.5886 74.0714 41.5376 73.7296 41.5274C72.2732 41.4967 70.8218 42.1764 69.8905 43.4797C69.5537 43.9499 69.3209 44.4661 69.1723 44.9977C68.8602 46.1068 68.9493 47.2977 69.415 48.3301C67.1859 50.5943 64.6397 52.6388 61.8013 54.4328C60.7957 55.0666 59.7554 55.6747 58.6755 56.242C56.2483 57.53 53.6328 58.629 50.8439 59.5387C48.7435 60.2185 46.9652 60.6835 45.385 60.9748C43.0073 61.4195 41.0852 61.4808 39.2078 61.3531C38.8908 61.3428 38.5639 61.3173 38.2468 61.2867C38.2716 61.2969 38.3013 61.3123 38.3261 61.3174C39.8023 61.9256 42.8785 62.6105 46.4897 62.5798C48.2185 62.5645 50.0562 62.3702 51.9139 61.9307V66.7146H57.6898L57.6997 66.7197Z" fill="#FBE910"/>
</svg>
