<svg width="260" height="250" viewBox="0 0 260 250" fill="none" xmlns="http://www.w3.org/2000/svg">
<path d="M25.6701 147.74C25.9101 149.03 26.1801 150.32 26.4701 151.59C33.5401 150.13 40.6701 148.88 47.8001 147.81C46.2801 141.48 45.4801 134.87 45.4801 128.07C45.4801 81.4401 83.2801 43.64 129.91 43.64C176.54 43.64 214.34 81.4401 214.34 128.07C214.34 134.87 213.54 141.48 212.02 147.81C219.15 148.88 226.28 150.13 233.35 151.59C233.64 150.29 233.91 148.99 234.16 147.67L247.49 138.95C247.82 135.37 247.99 131.73 247.99 128.07C247.99 124.41 247.82 120.75 247.49 117.15L234.16 108.4C233.16 103.09 231.77 97.92 230.01 92.92L237.19 78.6901C234.13 72.0501 230.47 65.7401 226.28 59.8301L210.32 58.91C206.84 54.87 203.07 51.1 199.03 47.62L198.14 31.6801C192.23 27.4901 185.92 23.83 179.28 20.77L165.01 27.9501C160.01 26.2001 154.84 24.8101 149.53 23.8201L140.81 10.49C137.23 10.16 133.6 10 129.92 10C126.24 10 122.6 10.17 119 10.5L110.24 23.8401C104.93 24.8401 99.7601 26.23 94.7601 27.98L80.5301 20.79C73.8901 23.85 67.5801 27.5101 61.6701 31.7101L60.7501 47.67C56.7101 51.15 52.9301 54.9201 49.4601 58.9701L33.5301 59.86C29.3401 65.77 25.6801 72.0801 22.6201 78.7201L29.8001 92.99C28.0501 97.99 26.6601 103.16 25.6701 108.47L12.3401 117.19C12.0101 120.77 11.8501 124.4 11.8501 128.07C11.8501 131.74 12.0201 135.4 12.3501 138.99L25.6801 147.74H25.6701Z" fill="#FCEA10"/>
<path d="M208.62 161.4C156.32 155.33 103.5 155.33 51.21 161.4L0 167.35H259.84L208.63 161.4H208.62Z" fill="#B1B1B1"/>
<path d="M60.02 213.52C78.91 229.91 103.29 239.76 129.91 239.76C156.53 239.76 180.91 229.9 199.81 213.52C182.77 223.38 151.54 229.07 129.91 229.07C108.28 229.07 77.05 223.38 60.02 213.52Z" fill="#FCEA10"/>
<path d="M32.5799 202.6H26.8599V184H32.5799V202.6ZM44.0298 202.6H38.3099V194.72H33.7699V190.07H38.3099V184H44.0298V202.6Z" fill="white"/>
<path d="M48.9601 184.01C49.9901 183.88 50.9001 183.78 51.6801 183.72C52.4701 183.66 53.22 183.62 53.95 183.62H54.3401C54.8601 183.62 55.47 183.65 56.14 183.72C56.82 183.78 57.5001 183.92 58.1801 184.14C59.5701 184.55 60.84 185.37 62 186.59C63.15 187.81 63.73 189.77 63.73 192.46V202.61H53.89C53.55 202.61 53.07 202.59 52.47 202.55C51.86 202.51 51.2401 202.39 50.5901 202.19C49.6401 201.89 48.7701 201.35 47.9901 200.56C47.2001 199.77 46.8101 198.55 46.8101 196.89C46.8101 196.74 46.81 196.59 46.83 196.44C46.84 196.29 46.8501 196.13 46.8701 195.96C47.0501 194.69 47.67 193.52 48.72 192.44C49.77 191.36 51.5101 190.83 53.9301 190.83H56.29C56.57 191.35 56.74 191.85 56.79 192.35C56.84 192.84 56.86 193.32 56.86 193.77V194.74H55.2C55.06 194.74 54.91 194.74 54.76 194.76C54.61 194.76 54.44 194.79 54.26 194.81C53.87 194.87 53.52 195.02 53.2 195.25C52.88 195.47 52.72 195.87 52.72 196.43C52.72 196.9 52.89 197.28 53.22 197.56C53.55 197.84 54 197.98 54.57 197.98H58.0201V193.65C58.0201 193.37 58.02 193.06 58.01 192.73C58 192.4 57.9601 192.06 57.9001 191.71C57.7601 190.85 57.36 190.06 56.72 189.34C56.07 188.62 54.8701 188.26 53.1201 188.26C52.8601 188.26 52.6 188.26 52.35 188.28C52.1 188.29 51.86 188.31 51.64 188.33C51.24 188.37 50.8201 188.43 50.4001 188.51C49.9801 188.59 49.5 188.7 48.98 188.85V184.04L48.9601 184.01Z" fill="white"/>
<path d="M98.2798 197.24H100.61V202.6H76.0498V197.24H91.8898V184H90.5898C88.3898 184 86.8698 184.52 86.0498 185.55C85.2198 186.58 84.7098 187.73 84.5098 188.97C84.4298 189.49 84.3798 190 84.3698 190.5C84.3698 191.01 84.3598 191.48 84.3598 191.91V192.33C84.3798 192.78 84.4198 193.23 84.4798 193.67C84.5398 194.11 84.6098 194.53 84.6898 194.91C84.7298 195.17 84.7698 195.4 84.8098 195.6C84.8498 195.8 84.8898 195.99 84.9298 196.16H78.5698C78.5298 196.03 78.4898 195.9 78.4598 195.76C78.4298 195.62 78.3898 195.47 78.3498 195.29C78.2098 194.67 78.0798 193.94 77.9598 193.11C77.8398 192.28 77.7798 191.39 77.7798 190.45C77.7798 189.8 77.8198 189.08 77.8998 188.27C77.9798 187.46 78.1498 186.64 78.4098 185.8C78.9298 184.01 79.9798 182.37 81.5598 180.88C83.1398 179.38 85.6298 178.63 89.0398 178.63H98.2798V197.23V197.24Z" fill="white"/>
<path d="M111.24 203.03C108.56 203.01 106.34 202.16 104.61 200.49C102.87 198.82 102.01 196.43 102.01 193.31C102.01 190.19 102.88 187.79 104.61 186.11C106.34 184.43 108.56 183.59 111.24 183.59C113.92 183.59 116.14 184.43 117.87 186.11C119.61 187.79 120.47 190.19 120.47 193.31C120.47 196.43 119.6 198.83 117.87 200.49C116.13 202.16 113.92 202.99 111.24 202.99V203.02V203.03ZM111.56 198.36C111.67 198.36 111.79 198.33 111.91 198.31C112.58 198.18 113.19 197.76 113.74 197.03C114.29 196.31 114.57 195.07 114.57 193.3C114.57 191.53 114.29 190.29 113.74 189.57C113.18 188.85 112.57 188.42 111.91 188.3C111.79 188.28 111.67 188.26 111.56 188.25C111.45 188.24 111.34 188.23 111.24 188.23C111.06 188.23 110.84 188.25 110.59 188.3C110.34 188.34 110.08 188.44 109.82 188.59C109.34 188.83 108.9 189.3 108.5 190.01C108.11 190.72 107.91 191.82 107.91 193.3C107.91 194.78 108.11 195.88 108.5 196.59C108.89 197.3 109.33 197.77 109.82 198.01C110.08 198.16 110.34 198.26 110.59 198.3C110.84 198.34 111.06 198.37 111.24 198.37C111.34 198.37 111.45 198.37 111.56 198.35" fill="white"/>
<path d="M131.62 184.01C131.9 184.01 132.45 184.04 133.27 184.11C134.09 184.17 134.97 184.41 135.92 184.82C137.03 185.31 138.05 186.15 138.98 187.34C139.91 188.53 140.37 190.29 140.37 192.64C140.37 195.42 139.61 197.57 138.08 199.1C136.55 200.63 134.78 201.39 132.76 201.39H132.37C131.95 201.37 131.54 201.34 131.14 201.31C130.75 201.28 130.41 201.24 130.13 201.2V196.55C130.35 196.62 130.56 196.66 130.77 196.7C130.97 196.73 131.17 196.75 131.38 196.75C131.54 196.75 131.74 196.73 131.97 196.69C132.2 196.65 132.44 196.57 132.68 196.46C133.12 196.27 133.53 195.9 133.91 195.35C134.28 194.8 134.47 193.98 134.47 192.88C134.47 191.57 134.22 190.62 133.71 190.05C133.2 189.48 132.65 189.1 132.04 188.9C131.72 188.79 131.4 188.73 131.09 188.71C130.78 188.69 130.51 188.68 130.29 188.68H128.99V213.1H123.27V184.03H131.63L131.62 184.01Z" fill="white"/>
<path d="M151.54 203.03C148.86 203.01 146.64 202.16 144.91 200.49C143.17 198.82 142.31 196.43 142.31 193.31C142.31 190.19 143.18 187.79 144.91 186.11C146.64 184.43 148.86 183.59 151.54 183.59C154.22 183.59 156.44 184.43 158.17 186.11C159.91 187.79 160.77 190.19 160.77 193.31C160.77 196.43 159.9 198.83 158.17 200.49C156.43 202.16 154.22 202.99 151.54 202.99V203.02V203.03ZM151.86 198.36C151.97 198.36 152.09 198.33 152.21 198.31C152.88 198.18 153.49 197.76 154.04 197.03C154.59 196.31 154.87 195.07 154.87 193.3C154.87 191.53 154.59 190.29 154.04 189.57C153.48 188.85 152.87 188.42 152.21 188.3C152.09 188.28 151.97 188.26 151.86 188.25C151.75 188.24 151.64 188.23 151.54 188.23C151.36 188.23 151.14 188.25 150.89 188.3C150.64 188.34 150.38 188.44 150.12 188.59C149.64 188.83 149.2 189.3 148.8 190.01C148.41 190.72 148.21 191.82 148.21 193.3C148.21 194.78 148.41 195.88 148.8 196.59C149.19 197.3 149.63 197.77 150.12 198.01C150.38 198.16 150.64 198.26 150.89 198.3C151.14 198.34 151.36 198.37 151.54 198.37C151.64 198.37 151.75 198.37 151.86 198.35" fill="white"/>
<path d="M172.28 194.27C172.04 194.1 171.8 193.93 171.55 193.77C171.31 193.61 171.06 193.44 170.82 193.27C170.34 194.07 169.9 194.97 169.52 195.97C169.14 196.97 168.81 197.98 168.55 198.99C168.39 199.61 168.25 200.23 168.13 200.85C168.01 201.46 167.91 202.05 167.83 202.61H162.11C162.27 201.49 162.53 200.21 162.9 198.77C163.26 197.33 163.77 195.85 164.41 194.35C164.71 193.62 165.06 192.89 165.45 192.18C165.84 191.47 166.27 190.77 166.74 190.08C166.07 189.52 165.43 188.89 164.82 188.19C164.21 187.49 163.65 186.77 163.17 186.04C162.95 185.69 162.74 185.35 162.56 185.01C162.38 184.67 162.23 184.33 162.11 184.01H168.5C168.64 184.29 168.78 184.56 168.92 184.82C169.06 185.08 169.2 185.31 169.34 185.53C169.88 186.35 170.41 186.98 170.91 187.42C171.42 187.86 171.87 188.2 172.27 188.44V184.02H177.99V188.44C178.39 188.2 178.85 187.86 179.35 187.42C179.86 186.98 180.38 186.35 180.92 185.53C181.06 185.31 181.2 185.08 181.34 184.82C181.48 184.56 181.62 184.29 181.76 184.01H188.15C188.03 184.33 187.88 184.67 187.7 185.01C187.52 185.35 187.32 185.7 187.09 186.04C186.61 186.77 186.05 187.49 185.44 188.19C184.82 188.89 184.18 189.52 183.52 190.08C183.98 190.77 184.41 191.47 184.81 192.18C185.2 192.89 185.55 193.61 185.85 194.35C186.5 195.86 187 197.33 187.36 198.77C187.72 200.21 187.99 201.49 188.15 202.61H182.43C182.35 202.05 182.25 201.46 182.13 200.85C182.01 200.24 181.87 199.62 181.71 198.99C181.45 197.98 181.12 196.97 180.74 195.97C180.36 194.97 179.92 194.07 179.44 193.27C179.2 193.44 178.96 193.61 178.71 193.77C178.47 193.93 178.23 194.1 177.98 194.27V202.6H172.26V194.27H172.28Z" fill="white"/>
<path d="M196.08 202.6H190.36V184H196.08V202.6ZM207.53 202.6H201.81V194.72H197.27V190.07H201.81V184H207.53V202.6Z" fill="white"/>
<path d="M217.13 178.641C216.95 179.761 216.58 180.761 216.03 181.631C215.47 182.501 214.81 182.941 214.05 182.941C213.32 182.941 212.67 182.541 212.1 181.731C211.52 180.921 211.14 179.901 210.93 178.651H217.14L217.13 178.641ZM216.89 202.601H211.17V184.001H216.89V202.601Z" fill="white"/>
<path d="M226.24 188.621C226.34 188.491 226.44 188.371 226.53 188.251C226.62 188.131 226.72 188.021 226.82 187.911C227.2 187.461 227.61 187.021 228.03 186.591C228.45 186.161 228.89 185.761 229.33 185.391C229.67 185.111 230.01 184.851 230.33 184.621C230.65 184.381 230.96 184.181 231.27 184.011H236.99V202.611H231.27V189.921C230.6 190.391 229.83 191.081 228.95 191.971C228.07 192.861 227.17 194.081 226.24 195.641V202.611H220.52V184.011H226.24V188.631V188.621ZM231.87 178.641C231.69 179.761 231.31 180.761 230.75 181.631C230.18 182.501 229.52 182.941 228.75 182.941C227.98 182.941 227.34 182.501 226.77 181.631C226.19 180.761 225.82 179.761 225.63 178.641H231.87Z" fill="white"/>
<path d="M92.9402 131C92.7802 131.02 92.6002 131.02 92.4402 131.02C91.8802 131.02 91.3202 130.98 90.7702 130.92C88.9602 130.72 87.3202 130.14 85.8302 129.23C83.9002 128.07 82.4002 126.4 81.3302 124.23C80.2702 122.08 79.7402 119.63 79.7402 116.84C79.7402 114.05 80.2602 111.58 81.3302 109.43C82.3902 107.28 83.9002 105.62 85.8302 104.43C87.7602 103.25 89.9702 102.66 92.4402 102.66C96.6602 102.66 100.23 104.59 103.2 108.46L111.39 100.39C109.18 97.3603 106.41 95.0503 103.06 93.4403C99.7302 91.8303 95.9702 91.0303 91.8002 91.0303C87.0202 91.0303 82.7202 92.1303 78.9302 94.3203C75.1302 96.5103 72.1402 99.5802 69.9702 103.5C67.8002 107.42 66.7202 111.87 66.7202 116.83C66.7202 121.79 67.8002 126.23 69.9702 130.14C72.1402 134.08 75.1302 137.13 78.9302 139.31C82.7202 141.52 87.0202 142.6 91.8002 142.6C95.9802 142.6 99.7302 141.8 103.06 140.19C106.17 138.7 108.78 136.62 110.89 133.9C111.07 133.7 111.23 133.48 111.39 133.26L108.16 130.07C102.3 131.13 97.5602 131.27 92.9402 130.97" fill="#FCEA10"/>
<path d="M160.86 139.311C157.02 137.091 154 134.021 151.81 130.101C149.62 126.181 148.52 121.761 148.52 116.851C148.52 111.941 149.62 107.521 151.81 103.601C154 99.6806 157.02 96.6105 160.86 94.3905C164.7 92.1705 169.03 91.0605 173.85 91.0605C178.67 91.0605 183 92.1705 186.84 94.3905C190.68 96.6105 193.7 99.6806 195.89 103.601C198.08 107.521 199.18 111.941 199.18 116.851C199.18 121.761 198.08 126.181 195.89 130.101C193.7 134.021 190.68 137.091 186.84 139.311C183 141.531 178.67 142.641 173.85 142.641C169.03 142.641 164.7 141.531 160.86 139.311ZM180.11 129.25C181.98 128.07 183.45 126.4 184.54 124.25C185.62 122.1 186.17 119.631 186.17 116.841C186.17 114.051 185.63 111.591 184.54 109.441C183.45 107.291 181.98 105.631 180.11 104.441C178.24 103.261 176.16 102.671 173.86 102.671C171.56 102.671 169.47 103.261 167.61 104.441C165.74 105.621 164.27 107.291 163.18 109.441C162.09 111.591 161.55 114.061 161.55 116.841C161.55 119.621 162.09 122.1 163.18 124.25C164.26 126.4 165.74 128.07 167.61 129.25C169.48 130.43 171.56 131.021 173.86 131.021C176.16 131.021 178.25 130.43 180.11 129.25Z" fill="#FCEA10"/>
<path d="M124.27 122.82C127.06 121.88 133.11 119.4 138.63 116.28V88.2598H160.98V75.2998H101.66V88.2598H124.27V122.82Z" fill="#FCEA10"/>
<path d="M189.16 94.7803C189.16 94.7803 189.18 94.7803 189.16 94.8003C189.24 97.2503 188.52 99.7402 186.95 101.87C183.94 105.97 178.74 107.45 174.18 105.97C168.54 111.35 154.4 121.61 138.5 128.08V143.82H124.26V132.4C119.68 133.44 115.15 133.91 110.89 133.95C102 134.03 94.4098 132.38 90.7698 130.94C90.7098 130.92 90.6298 130.88 90.5698 130.86C91.3498 130.94 92.1598 131 92.9398 131.02C97.5598 131.32 102.3 131.18 108.16 130.12C112.05 129.42 116.43 128.31 121.61 126.69C128.48 124.52 134.92 121.89 140.9 118.82C151.04 113.64 159.91 107.26 167.36 99.9303C165.65 96.2803 165.95 91.8203 168.52 88.3503C170.81 85.2403 174.38 83.6103 177.98 83.6903C178.82 83.7103 179.67 83.8303 180.49 84.0303L175.25 89.2903C174.67 89.8903 174.55 90.2303 174.73 90.9403L176.03 95.6803C176.11 95.9603 176.21 96.2603 176.41 96.4603C176.61 96.6603 176.87 96.7603 177.15 96.8203L181.95 98.0803C182.65 98.2803 182.97 98.1603 183.58 97.5403L188.8 92.3003C189 93.1003 189.12 93.9503 189.14 94.8103" fill="white"/>
</svg>
