<svg width="115" height="35" viewBox="0 0 115 35" fill="none" xmlns="http://www.w3.org/2000/svg">
<g id="Group">
<path id="Vector" d="M0.97276 22.4689C1.83801 22.7281 4.95289 26.6614 5.70266 26.8917C6.45277 27.1226 9.79826 27.5266 10.375 26.8917C10.9517 26.2574 9.1633 24.3535 8.29839 23.5865C6.3366 21.846 5.76091 22.1618 4.37652 22.0466C3.05004 21.9363 1.30162 21.7712 0.14957 21.1997C0.228166 19.0621 0.302968 16.1926 0.540135 15.841C0.579433 15.7817 0.641827 15.7055 0.718355 15.618C2.40265 15.8455 7.39557 15.8703 8.35631 15.841C9.45251 15.8065 13.4323 14.4904 11.4133 14.1812C9.62866 13.9078 5.18764 13.4128 3.78187 12.704C3.86736 12.6272 3.94872 12.5544 4.02628 12.4845C6.70717 13.0002 13.1169 10.0897 13.9511 9.64535C14.6953 9.24823 16.25 7.87005 17.368 6.89552C23.9669 4.76206 34.1479 1.74369 43.3674 0.617839C56.4436 -0.978556 61.5027 0.965314 62.5383 1.45999C61.8695 1.83297 61.5713 2.13391 61.6306 2.43485C61.7096 2.83818 74.1688 10.7984 75.1495 10.9715C75.9275 11.1087 78.3023 11.1728 79.7405 10.3286C80.9232 10.5744 84.5524 10.6699 89.3099 11.0866C93.6471 11.4672 97.6486 12.1153 99.7276 12.4424C103.212 16.87 107.17 18.4233 108.143 18.5846C108.865 18.7046 108.24 17.7738 107.467 16.7755C109.087 17.5456 112.806 19.3844 113.19 19.9987C113.326 20.2162 113.453 20.5964 113.567 21.0504C112.02 21.1555 111.205 20.7763 111.258 21.4099C111.315 22.1042 110.791 26.6028 111.255 26.7758C111.581 26.8975 113.018 26.5914 113.843 26.3987C113.843 26.6524 113.895 26.8396 114.055 26.9199C114.132 26.9582 114.226 27.0061 114.324 27.0613C113.08 27.4915 111.214 27.9293 109.585 27.9293C107.624 27.9293 104.047 28.1023 103.471 28.2754C102.894 28.4484 102.778 28.7945 103.067 28.7945C103.355 28.7945 109.597 29.1413 111.062 28.7945C112.181 28.5298 113.893 27.8021 114.844 27.4446C115.124 27.7517 115.115 28.1285 114.063 28.4774C112.238 29.0834 107.998 30.8997 106.355 30.9866C104.711 31.0728 102.634 30.5536 101.942 30.9866C101.911 31.0062 101.876 31.0204 101.842 31.0352C102.783 27.446 103.69 19.3113 97.1836 15.8406C89.5698 11.7788 81.8405 17.0854 81.4365 21.9312C81.1879 24.9137 81.0269 27.568 80.9539 29.2213C80.765 29.4791 80.9514 30.5536 79.6198 30.5536C78.062 30.5536 37.6575 30.0345 36.7053 30.3806C35.7539 30.7267 35.4078 31.5926 34.8022 31.6788C34.1968 31.765 34.9752 29.1696 34.5429 29.0834C34.5084 29.0761 34.4702 29.0762 34.4305 29.0779C34.9414 21.956 35.2654 15.9723 25.776 14.397C16.259 12.8175 13.3747 20.3379 13.0865 22.5765C12.8683 24.2663 12.9797 27.0478 13.2213 29.0782C12.7205 29.1947 12.1706 29.2985 11.7883 29.2561C11.0096 29.1692 7.11601 28.9962 6.59686 28.5639C6.07771 28.1309 4.17451 27.0926 3.48232 27.0926C3.27893 27.0926 3.05279 27.0771 2.82218 27.0447C1.86455 25.6772 0.754898 23.8244 0.0620117 22.9857C0.0785583 22.7795 0.0930301 22.5265 0.107164 22.2383C0.393625 22.3083 0.697674 22.3869 0.97276 22.4689Z" fill="#FCEA10"/>
<path id="Vector_2" d="M58.1919 2.60835C64.1907 4.16579 71.2275 10.2797 72.3233 11.054C72.3233 11.054 56.4521 10.4569 44.5651 9.95465C44.0005 8.31379 42.7753 4.40397 42.3203 2.60902C46.2894 1.98163 53.1693 1.30427 58.1919 2.60835Z" fill="#3C3C3B"/>
<path id="Vector_3" d="M40.3686 2.95479C40.8853 2.85172 41.5485 2.73141 42.3204 2.60938C42.775 4.40433 44.0005 8.31414 44.5652 9.95501C43.2394 9.89916 41.9632 9.84471 40.7646 9.79128C40.3151 8.23073 39.9301 4.76732 39.8208 3.06992C40.0187 3.02683 40.2027 2.98788 40.3686 2.95479Z" fill="#FCEA10"/>
<path id="Vector_4" d="M44.8093 4.33942C46.1941 4.16637 53.9806 3.30112 56.8645 4.33942C59.7488 5.37771 64.2477 7.40742 65.517 8.72838C66.7862 10.0493 65.0557 10.3813 62.3445 10.302C59.6337 10.2224 48.04 9.70361 48.04 9.70361C48.04 9.70361 48.2707 6.84415 47.9821 6.05302C47.694 5.26258 46.7708 4.33942 46.1944 4.6276C45.6174 4.91648 45.3867 5.3198 45.1558 5.03161C44.9248 4.74343 44.8093 4.33942 44.8093 4.33942Z" fill="#E0E0E0"/>
<path id="Vector_5" d="M32.2353 7.91538C32.1274 7.10805 38.0383 5.69953 40.005 5.13867C40.1497 6.47998 40.3562 7.994 40.5907 9.08538C38.2049 8.97093 32.3281 8.61068 32.2353 7.91538Z" fill="#E0E0E0"/>
<path id="Vector_6" d="M26.7556 6.99276C27.6301 6.22714 36.224 3.85581 39.8201 3.07019C39.8553 3.6176 39.9194 4.34807 40.0049 5.1392C38.0382 5.70006 32.1273 7.10858 32.2352 7.91591C32.3283 8.61156 38.2047 8.9718 40.5905 9.08624C40.6471 9.34823 40.705 9.58712 40.7639 9.79188C37.9914 9.67054 35.6307 9.56023 34.0233 9.47336C25.4867 9.01109 25.8331 7.8001 26.7556 6.99276Z" fill="#3C3C3B"/>
<path id="Vector_7" d="M44.1175 14.5485C45.6194 14.4737 49.3699 14.4906 49.3106 14.7788C49.2513 15.0677 44.4636 14.8946 44.1175 14.9518C43.7714 15.0098 44.0599 15.4138 45.1557 15.4138C46.2519 15.4138 48.0976 15.0677 48.5012 15.4138C48.9053 15.7599 49.0783 15.865 49.6554 15.8412C50.2317 15.8178 50.9819 15.7599 50.2317 16.2211C49.4823 16.6823 47.5788 16.4521 46.425 16.4521C45.2712 16.4521 44.5335 16.4421 43.9796 15.8416C43.4252 15.2407 43.3094 14.5882 44.1175 14.5485Z" fill="#3C3C3B"/>
<path id="Vector_8" d="M32.6392 11.5487C34.2411 11.9513 35.581 12.4139 36.2732 12.933C36.9654 13.4522 37.7731 15.7373 38.2922 16.9128C38.8114 18.0883 39.5035 19.148 38.2922 19.1266C37.0805 19.1049 36.0426 17.6629 35.0622 16.9128C34.0815 16.1634 32.5788 13.7983 32.2345 13.164C31.8894 12.5287 31.4802 11.257 32.6392 11.5487Z" fill="#3C3C3B"/>
<path id="Vector_9" d="M72.3232 11.0544C74.2846 11.0544 76.707 12.5295 77.284 13.8566C77.8607 15.1831 77.6301 18.7554 77.284 21.4108C76.9379 24.0655 77.3992 27.411 73.3615 27.2379C69.3238 27.0649 51.7927 27.411 49.3107 25.9687C46.8288 24.5271 43.8873 19.6817 42.9645 17.5479C42.0413 15.4137 41.5794 12.8752 42.3295 12.1255C43.0796 11.376 43.4815 10.7069 43.8873 9.92578" stroke="#3C3C3B" stroke-width="1.5059" stroke-miterlimit="10" stroke-linecap="round" stroke-linejoin="round"/>
<path id="Vector_10" d="M103.47 17.8369H98.6829C98.6829 17.8369 99.433 18.3419 99.606 18.7815C99.7787 19.221 102.028 19.322 102.375 18.9545C102.721 18.587 103.47 17.8369 103.47 17.8369Z" fill="#E0E0E0"/>
<path id="Vector_11" d="M9.2214 10.3128C8.77568 10.8858 4.81485 10.0705 3.17261 9.11182C3.30774 8.88706 3.64004 8.73609 4.26053 8.72816C5.80798 8.70782 7.37852 8.87224 8.56264 9.00944C8.45577 9.16112 8.38304 9.31452 8.35615 9.44827C8.26618 9.90054 9.41547 10.0636 9.2214 10.3128Z" fill="#3C3C3B"/>
<path id="Vector_12" d="M9.17268 10.3598C9.19164 10.3456 9.20854 10.3301 9.22129 10.3132C9.41537 10.064 8.26573 9.90128 8.35604 9.44866C8.38293 9.31457 8.45567 9.16116 8.56253 9.00983C9.37227 9.10325 10.0003 9.18425 10.3168 9.18425C10.6129 9.18425 13.3155 8.20733 17.368 6.89636C16.2501 7.87054 14.6954 9.24872 13.9512 9.64619C13.117 10.0905 6.70725 13.001 4.02637 12.4853C4.26422 12.2692 4.45588 12.0778 4.56343 11.8927C5.86061 11.8369 8.3133 11.4794 9.10615 11.0544C9.64874 10.7634 9.5922 10.5583 9.17268 10.3598Z" fill="#3C3C3B"/>
<path id="Vector_13" d="M4.174 10.914C3.52144 10.44 2.87819 9.60095 3.17293 9.11145C4.76725 10.0425 8.54572 10.8378 9.17311 10.359C9.59264 10.5575 9.64917 10.763 9.10624 11.0539C8.31338 11.4786 5.8607 11.8364 4.56352 11.8923C4.74519 11.5793 4.68143 11.2835 4.174 10.914Z" fill="#FCEA10"/>
<path id="Vector_14" d="M75.1495 10.9726C74.1688 10.7995 61.71 2.83925 61.6307 2.43593C61.5714 2.13499 61.8692 1.83405 62.5383 1.46106C62.6814 1.52966 62.7482 1.57068 62.7482 1.57068C62.7482 1.57068 78.5812 10.0353 79.6195 10.3017C79.6561 10.311 79.6971 10.3207 79.7405 10.3293C78.3027 11.1739 75.9276 11.1097 75.1495 10.9726Z" fill="#E0E0E0"/>
<path id="Vector_15" d="M1.3186 26.4888C0.799456 26.0559 -0.152309 24.4988 0.0207397 23.3736C0.035218 23.2781 0.0486635 23.1454 0.0610734 22.9872C0.753959 23.8262 1.86326 25.6791 2.82124 27.0463C2.26693 26.9694 1.68538 26.7936 1.3186 26.4888Z" fill="#3C3C3B"/>
<path id="Vector_16" d="M0.106445 22.2389C0.121268 21.9266 0.135402 21.575 0.149535 21.1992C1.30159 21.7708 3.05 21.9359 4.37648 22.0462C5.5668 22.1451 6.16006 21.9269 7.55066 22.9707C5.80569 23.0145 2.48191 22.768 1.18059 22.5716C1.10199 22.5223 1.03202 22.4861 0.973073 22.4685C0.697642 22.3864 0.393597 22.3078 0.106445 22.2389Z" fill="#960000"/>
<path id="Vector_17" d="M7.55034 22.9716C7.77682 23.1412 8.02364 23.3432 8.29804 23.5869C9.16328 24.3539 10.9513 26.2578 10.3746 26.8921C9.79791 27.527 6.45241 27.123 5.7023 26.8921C5.00356 26.6773 2.25098 23.2477 1.17993 22.5724C2.48159 22.7689 5.80572 23.015 7.55034 22.9716Z" fill="#3C3C3B"/>
<path id="Vector_18" d="M4.52051 13.7409C5.7029 14.0298 7.95254 14.1273 7.83706 14.511C7.72192 14.8947 3.46498 14.3056 3.05545 14.3979C2.75037 14.4672 2.32913 14.5668 1.92822 14.4045C2.40704 13.9512 2.91929 13.4827 3.32537 13.1152C3.49739 13.3465 3.7673 13.5579 4.52051 13.7409Z" fill="#FCEA10"/>
<path id="Vector_19" d="M8.35622 15.8413C7.39548 15.871 2.40222 15.8462 0.718262 15.6183C0.980593 15.3187 1.43494 14.8716 1.92858 14.4045C2.32914 14.5669 2.75073 14.4673 3.05581 14.398C3.46568 14.3056 7.72227 14.8947 7.83741 14.511C7.95289 14.1274 5.70325 14.0298 4.52086 13.7409C3.76765 13.5579 3.4974 13.3462 3.32573 13.1156C3.44569 13.007 3.55772 12.906 3.65493 12.8188C3.69837 12.7799 3.74042 12.742 3.78213 12.7051C5.18789 13.4142 9.62891 13.9088 11.4135 14.1822C13.4322 14.4907 9.45242 15.8069 8.35622 15.8413Z" fill="#960000"/>
<path id="Vector_20" d="M108.143 18.5856C107.17 18.4239 103.212 16.8706 99.7278 12.4434C100.013 12.4885 100.263 12.5275 100.471 12.5585C102.202 12.8184 105.836 16.0191 106.96 16.5383C107.087 16.5969 107.261 16.6789 107.467 16.7765C108.24 17.7748 108.866 18.7055 108.143 18.5856Z" fill="#E0E0E0"/>
<path id="Vector_21" d="M97.1837 15.8418C103.69 19.3125 102.783 27.4471 101.842 31.0364C101.104 31.3569 99.5947 30.7123 99.3468 30.3821C99.0869 30.036 81.5235 29.2576 81.0909 29.1707C81.0281 29.1587 80.9857 29.1787 80.9543 29.2225C81.0278 27.5688 81.1887 24.9148 81.4369 21.9323C81.8406 17.0866 89.5699 11.78 97.1837 15.8418Z" fill="#020301"/>
<path id="Vector_22" d="M13.0861 22.5774C13.3747 20.3388 16.2586 12.818 25.7756 14.3979C35.265 15.9732 34.941 21.9569 34.4301 29.0788C33.9627 29.1036 33.1309 29.6893 32.812 29.6893C32.4659 29.6893 14.7294 28.824 14.3833 28.824C14.2068 28.824 13.7397 28.9588 13.2206 29.0791C12.9796 27.0487 12.8679 24.2672 13.0861 22.5774Z" fill="#020301"/>
<path id="Vector_23" d="M111.255 26.7772C110.791 26.6042 111.315 22.1052 111.258 21.4113C111.205 20.7777 112.02 21.1569 113.567 21.0518C113.814 22.0415 113.996 23.3814 114.055 24.1529C114.115 24.9306 113.844 25.832 113.843 26.4005C113.018 26.5925 111.582 26.8989 111.255 26.7772Z" fill="#3C3C3B"/>
<path id="Vector_24" d="M103.067 28.7948C102.778 28.7948 102.894 28.4487 103.47 28.2756C104.047 28.1026 107.623 27.9295 109.584 27.9295C111.214 27.9295 113.08 27.4917 114.323 27.0615C114.509 27.166 114.709 27.2973 114.844 27.4445C113.892 27.802 112.181 28.5297 111.061 28.7944C109.597 29.1416 103.355 28.7948 103.067 28.7948Z" fill="#3C3C3B"/>
<path id="Vector_25" d="M65.6328 7.74237C66.9241 8.06606 69.9011 9.16849 69.9011 9.92584C69.9011 10.6839 68.7473 10.3864 68.6322 11.0541C68.5167 11.7222 69.3244 12.5467 69.3244 12.5467C69.3244 12.5467 68.1706 12.8752 67.7669 12.7022C67.3629 12.5291 67.5939 10.9052 67.0168 11.0541C66.4398 11.203 65.1712 11.5209 64.5366 10.9869C63.9023 10.4529 64.1453 7.36869 65.6328 7.74237Z" fill="#FCEA10"/>
<g id="Group_2">
<path id="Vector_26" d="M14.5659 25.6008C14.5659 30.7774 18.7622 34.9734 23.9385 34.9734C29.1155 34.9734 33.3118 30.7774 33.3118 25.6008C33.3118 20.4238 29.1151 16.2275 23.9385 16.2275C18.7622 16.2275 14.5659 20.4241 14.5659 25.6008Z" fill="#3C3C3B"/>
<path id="Vector_27" d="M30.0385 22.7605C30.427 23.2711 30.8645 24.4728 30.5632 24.8437C30.2616 25.2146 30.2071 25.6851 30.356 26.0864C30.5053 26.4883 29.9861 27.7924 29.5821 28.0051C29.1788 28.2185 29.4056 28.3746 29.2939 28.9489C29.1823 29.5225 29.0495 29.7359 28.4797 30.0727C27.9099 30.4099 27.1887 31.1572 27.2318 30.2951C27.2749 29.4326 27.6414 26.2581 27.9775 25.7961C28.3136 25.3342 27.8965 24.1911 28.4797 23.9553C29.063 23.7192 29.7879 22.4313 30.0385 22.7605Z" fill="#C79400"/>
<g id="Group_3">
<path id="Vector_28" d="M23.9386 33.0713C28.0577 33.0713 31.4087 29.7203 31.4087 25.6019C31.4087 21.4828 28.0577 18.1318 23.9386 18.1318C19.8203 18.1318 16.4692 21.4828 16.4692 25.6019C16.4692 29.7206 19.8203 33.0713 23.9386 33.0713Z" stroke="white" stroke-width="1.0039" stroke-miterlimit="10" stroke-linecap="round" stroke-linejoin="round"/>
<path id="Vector_29" d="M22.3589 18.3848L22.9297 24.2429" stroke="white" stroke-width="1.0039" stroke-miterlimit="10" stroke-linecap="round" stroke-linejoin="round"/>
<path id="Vector_30" d="M24.5088 18.1543L25.4675 24.5351" stroke="white" stroke-width="1.0039" stroke-miterlimit="10" stroke-linecap="round" stroke-linejoin="round"/>
<path id="Vector_31" d="M28.4517 19.752L24.3306 23.9551" stroke="white" stroke-width="1.0039" stroke-miterlimit="10" stroke-linecap="round" stroke-linejoin="round"/>
<path id="Vector_32" d="M30.0107 21.25L25.7393 26.0864" stroke="white" stroke-width="1.0039" stroke-miterlimit="10" stroke-linecap="round" stroke-linejoin="round"/>
<path id="Vector_33" d="M31.3209 25.2991L25.4517 24.8438" stroke="white" stroke-width="1.0039" stroke-miterlimit="10" stroke-linecap="round" stroke-linejoin="round"/>
<path id="Vector_34" d="M31.1747 27.4564L24.7246 27.293" stroke="white" stroke-width="1.0039" stroke-miterlimit="10" stroke-linecap="round" stroke-linejoin="round"/>
<path id="Vector_35" d="M28.9157 31.0623L25.4919 26.2734" stroke="white" stroke-width="1.0039" stroke-miterlimit="10" stroke-linecap="round" stroke-linejoin="round"/>
<path id="Vector_36" d="M27.1694 32.336L23.1489 27.29" stroke="white" stroke-width="1.0039" stroke-miterlimit="10" stroke-linecap="round" stroke-linejoin="round"/>
<path id="Vector_37" d="M22.9551 32.9236L24.4225 27.2227" stroke="white" stroke-width="1.0039" stroke-miterlimit="10" stroke-linecap="round" stroke-linejoin="round"/>
<path id="Vector_38" d="M20.8557 32.4054L22.1377 26.0819" stroke="white" stroke-width="1.0039" stroke-miterlimit="10" stroke-linecap="round" stroke-linejoin="round"/>
<path id="Vector_39" d="M17.6975 29.5549L23.0076 27.0146" stroke="white" stroke-width="1.0039" stroke-miterlimit="10" stroke-linecap="round" stroke-linejoin="round"/>
<path id="Vector_40" d="M16.7451 27.6131L22.4133 24.5303" stroke="white" stroke-width="1.0039" stroke-miterlimit="10" stroke-linecap="round" stroke-linejoin="round"/>
<path id="Vector_41" d="M16.8992 23.3613L22.2578 25.7961" stroke="white" stroke-width="1.0039" stroke-miterlimit="10" stroke-linecap="round" stroke-linejoin="round"/>
<path id="Vector_42" d="M17.7737 21.3848L23.7794 23.7447" stroke="white" stroke-width="1.0039" stroke-miterlimit="10" stroke-linecap="round" stroke-linejoin="round"/>
</g>
<path id="Vector_43" d="M21.3262 25.6013C21.3262 27.0439 22.4955 28.2135 23.9385 28.2135C25.3815 28.2135 26.5511 27.0439 26.5511 25.6013C26.5511 24.1583 25.3811 22.9883 23.9385 22.9883C22.4958 22.9883 21.3262 24.1586 21.3262 25.6013Z" fill="#E0E0E0"/>
</g>
<g id="Group_4">
<path id="Vector_44" d="M99.8423 22.4744C98.1146 17.5945 92.7584 15.0388 87.8785 16.7665C82.999 18.4943 80.4433 23.8509 82.1706 28.7307C83.8984 33.6106 89.255 36.1656 94.1348 34.4382C99.015 32.7105 101.57 27.3536 99.8423 22.4744Z" fill="#3C3C3B"/>
<path id="Vector_45" d="M86.205 30.3152C85.6679 29.964 84.8547 28.9767 85.015 28.5265C85.1757 28.0766 85.0698 27.615 84.7951 27.2862C84.5204 26.957 84.5745 25.554 84.884 25.2186C85.1936 24.8831 84.9271 24.8111 84.8409 24.233C84.7548 23.6546 84.8085 23.4095 85.2336 22.902C85.6583 22.3936 86.0888 21.4484 86.3356 22.276C86.5832 23.104 87.2971 26.2189 87.1344 26.766C86.9717 27.3134 87.7466 28.2517 87.275 28.6685C86.8045 29.086 86.5504 30.542 86.205 30.3152Z" fill="#C79400"/>
<g id="Group_5">
<path id="Vector_46" d="M88.5139 18.5607C84.631 19.9354 82.5909 24.213 83.9653 28.0949C85.3401 31.9779 89.617 34.0186 93.4996 32.6435C97.3825 31.2688 99.4229 26.9922 98.0481 23.1092C96.6734 19.2263 92.3965 17.1863 88.5139 18.5607Z" stroke="white" stroke-width="1.0039" stroke-miterlimit="10" stroke-linecap="round" stroke-linejoin="round"/>
<path id="Vector_47" d="M94.9045 31.8781L92.4111 26.546" stroke="white" stroke-width="1.0039" stroke-miterlimit="10" stroke-linecap="round" stroke-linejoin="round"/>
<path id="Vector_48" d="M92.9553 32.8133L89.9221 27.1182" stroke="white" stroke-width="1.0039" stroke-miterlimit="10" stroke-linecap="round" stroke-linejoin="round"/>
<path id="Vector_49" d="M88.7046 32.6217L91.1869 27.2844" stroke="white" stroke-width="1.0039" stroke-miterlimit="10" stroke-linecap="round" stroke-linejoin="round"/>
<path id="Vector_50" d="M86.7351 31.7296L89.1481 25.7452" stroke="white" stroke-width="1.0039" stroke-miterlimit="10" stroke-linecap="round" stroke-linejoin="round"/>
<path id="Vector_51" d="M84.1489 28.3506L89.8333 26.8214" stroke="white" stroke-width="1.0039" stroke-miterlimit="10" stroke-linecap="round" stroke-linejoin="round"/>
<path id="Vector_52" d="M83.5669 26.2691L89.7022 24.2708" stroke="white" stroke-width="1.0039" stroke-miterlimit="10" stroke-linecap="round" stroke-linejoin="round"/>
<path id="Vector_53" d="M84.4934 22.1154L89.3184 25.4871" stroke="white" stroke-width="1.0039" stroke-miterlimit="10" stroke-linecap="round" stroke-linejoin="round"/>
<path id="Vector_54" d="M85.7141 20.3312L91.1879 23.747" stroke="white" stroke-width="1.0039" stroke-miterlimit="10" stroke-linecap="round" stroke-linejoin="round"/>
<path id="Vector_55" d="M89.491 18.3722L90.0101 24.2352" stroke="white" stroke-width="1.0039" stroke-miterlimit="10" stroke-linecap="round" stroke-linejoin="round"/>
<path id="Vector_56" d="M91.6423 18.1594L92.5448 24.5488" stroke="white" stroke-width="1.0039" stroke-miterlimit="10" stroke-linecap="round" stroke-linejoin="round"/>
<path id="Vector_57" d="M95.5711 19.7931L91.4131 23.9601" stroke="white" stroke-width="1.0039" stroke-miterlimit="10" stroke-linecap="round" stroke-linejoin="round"/>
<path id="Vector_58" d="M97.1169 21.3048L92.8027 26.1023" stroke="white" stroke-width="1.0039" stroke-miterlimit="10" stroke-linecap="round" stroke-linejoin="round"/>
<path id="Vector_59" d="M98.3907 25.3639L92.5264 24.8575" stroke="white" stroke-width="1.0039" stroke-miterlimit="10" stroke-linecap="round" stroke-linejoin="round"/>
<path id="Vector_60" d="M98.2255 27.5199L91.7769 27.299" stroke="white" stroke-width="1.0039" stroke-miterlimit="10" stroke-linecap="round" stroke-linejoin="round"/>
</g>
<path id="Vector_61" d="M93.4696 24.7307C92.988 23.3701 91.4954 22.6582 90.1348 23.1398C88.7745 23.6214 88.0623 25.1147 88.5443 26.4746C89.0255 27.8346 90.5185 28.5471 91.8787 28.0648C93.239 27.5836 93.9512 26.0906 93.4696 24.7307Z" fill="#E0E0E0"/>
</g>
</g>
</svg>
