<svg width="20" height="21" viewBox="0 0 20 21" fill="none" xmlns="http://www.w3.org/2000/svg">
<g id="Icons social media" clip-path="url(#clip0_104199_370)">
<path id="Vector" d="M20 10.5C20 4.97715 15.5229 0.5 10 0.5C4.47715 0.5 0 4.97715 0 10.5C0 15.4912 3.65684 19.6283 8.4375 20.3785V13.3906H5.89844V10.5H8.4375V8.29688C8.4375 5.79063 9.93047 4.40625 12.2146 4.40625C13.3084 4.40625 14.4531 4.60156 14.4531 4.60156V7.0625H13.1922C11.95 7.0625 11.5625 7.8334 11.5625 8.625V10.5H14.3359L13.8926 13.3906H11.5625V20.3785C16.3432 19.6283 20 15.4912 20 10.5Z" fill="white"/>
</g>
<defs>
<clipPath id="clip0_104199_370">
<rect width="20" height="20" fill="white" transform="translate(0 0.5)"/>
</clipPath>
</defs>
</svg>
