<svg width="33" height="32" viewBox="0 0 33 32" fill="none" xmlns="http://www.w3.org/2000/svg">
<g clip-path="url(#clip0_104748_4348)">
<path fill-rule="evenodd" clip-rule="evenodd" d="M32.4 16C32.4 24.8366 25.2366 32 16.4 32C7.56347 32 0.400024 24.8366 0.400024 16C0.400024 7.16344 7.56347 0 16.4 0C25.2366 0 32.4 7.16344 32.4 16ZM16.9734 11.8119C15.4172 12.4592 12.3069 13.7989 7.64255 15.8311C6.88513 16.1323 6.48837 16.427 6.45225 16.7151C6.39121 17.202 7.00098 17.3937 7.83132 17.6548C7.94427 17.6903 8.0613 17.7271 8.18127 17.7661C8.99821 18.0317 10.0971 18.3424 10.6684 18.3547C11.1866 18.3659 11.765 18.1523 12.4035 17.7138C16.7616 14.772 19.0112 13.2851 19.1524 13.253C19.2521 13.2304 19.3902 13.202 19.4837 13.2851C19.5773 13.3683 19.5681 13.5258 19.5582 13.568C19.4978 13.8255 17.1042 16.0508 15.8655 17.2024C15.4794 17.5614 15.2055 17.816 15.1495 17.8742C15.024 18.0045 14.8962 18.1277 14.7733 18.2461C14.0144 18.9778 13.4452 19.5264 14.8048 20.4224C15.4582 20.8529 15.981 21.209 16.5026 21.5642C17.0722 21.9521 17.6404 22.339 18.3755 22.8209C18.5628 22.9437 18.7417 23.0712 18.9159 23.1954C19.5788 23.668 20.1744 24.0926 20.9101 24.0248C21.3377 23.9855 21.7793 23.5835 22.0036 22.3845C22.5336 19.5509 23.5755 13.4113 23.8163 10.8813C23.8374 10.6596 23.8109 10.376 23.7896 10.2514C23.7682 10.1269 23.7237 9.94948 23.5618 9.81813C23.3701 9.66258 23.0742 9.62978 22.9418 9.63211C22.3401 9.64271 21.4168 9.96376 16.9734 11.8119Z" fill="white"/>
</g>
<defs>
<clipPath id="clip0_104748_4348">
<rect width="32" height="32" fill="white" transform="translate(0.400024)"/>
</clipPath>
</defs>
</svg>
