<svg width="40" height="40" viewBox="0 0 40 40" fill="none" xmlns="http://www.w3.org/2000/svg">
<path d="M16.0167 26.85C16.0167 23.3833 17.65 20.3166 20.1667 18.3333H8.33333L10.8333 10.8333H29.1667L31.2 16.9333C32.6 17.55 33.8333 18.45 34.85 19.5666L31.5333 9.99998C31.2 9.03331 30.2667 8.33331 29.1667 8.33331H10.8333C9.73333 8.33331 8.8 9.03331 8.46667 9.99998L5 20V33.3333C5 34.25 5.75 35 6.66667 35H8.33333C9.25 35 10 34.25 10 33.3333V31.6666H17.15C16.4333 30.2166 16.0167 28.5833 16.0167 26.85ZM10.8333 26.6666C9.45 26.6666 8.33333 25.55 8.33333 24.1666C8.33333 22.7833 9.45 21.6666 10.8333 21.6666C12.2167 21.6666 13.3333 22.7833 13.3333 24.1666C13.3333 25.55 12.2167 26.6666 10.8333 26.6666ZM26.85 19.35C31.0167 19.35 34.35 22.6833 34.35 26.85C34.35 28.3333 33.9333 29.7 33.2 30.8333L38.3333 36.0166L36.0167 38.3333L30.8333 33.2166C29.6667 33.9333 28.3333 34.35 26.85 34.35C22.6833 34.35 19.35 31.0166 19.35 26.85C19.35 22.6833 22.6833 19.35 26.85 19.35ZM26.85 22.6833C24.55 22.6833 22.6833 24.55 22.6833 26.85C22.6833 29.15 24.55 31.0166 26.85 31.0166C29.15 31.0166 31.0167 29.1666 31.0167 26.85C31.0167 24.5333 29.1667 22.6833 26.85 22.6833Z" fill="#FCEA10"/>
</svg>
