<svg width="40" height="40" viewBox="0 0 40 40" fill="none" xmlns="http://www.w3.org/2000/svg">
<g id="Component 27">
<path id="Vector" d="M24.9999 20H27.4999V27.0833L32.2666 29.9L31.0166 31.9333L24.9999 28.3333V20ZM38.3333 26.6666C38.3333 29.7608 37.1041 32.7283 34.9162 34.9162C32.7282 37.1041 29.7608 38.3333 26.6666 38.3333C21.6666 38.3333 17.3333 35.1333 15.6999 30.6666L13.3333 29.8333L4.43325 33.2833L4.16659 33.3333C3.94557 33.3333 3.73361 33.2455 3.57733 33.0892C3.42105 32.933 3.33325 32.721 3.33325 32.5V7.29998C3.33325 6.91665 3.58325 6.61665 3.93325 6.49998L13.3333 3.33331L23.3333 6.83331L32.2333 3.33331H32.4999C32.7209 3.33331 32.9329 3.42111 33.0892 3.57739C33.2455 3.73367 33.3333 3.94563 33.3333 4.16665V17.0833C36.3499 19.1666 38.3333 22.7 38.3333 26.6666ZM14.9999 26.6666C14.9999 21.3833 18.5166 16.9166 23.3333 15.4833V10.1833L13.3333 6.66665V26.4833L14.9999 27.0666C14.9999 26.9333 14.9999 26.8 14.9999 26.6666ZM26.6666 18.3333C24.4564 18.3333 22.3368 19.2113 20.774 20.7741C19.2112 22.3369 18.3333 24.4565 18.3333 26.6666C18.3333 28.8768 19.2112 30.9964 20.774 32.5592C22.3368 34.122 24.4564 35 26.6666 35C28.8767 35 30.9963 34.122 32.5591 32.5592C34.1219 30.9964 34.9999 28.8768 34.9999 26.6666C34.9999 24.4565 34.1219 22.3369 32.5591 20.7741C30.9963 19.2113 28.8767 18.3333 26.6666 18.3333Z" fill="#FCEA10"/>
</g>
</svg>
